<?xml version="1.0" encoding="UTF-8" standalone="no"?>
<svg xmlns="http://www.w3.org/2000/svg" version="1.2" baseProfile="tiny" viewBox="0.00 0.00 512.00 512.00">
<g stroke-width="2.00" fill="none" stroke-linecap="butt">
<path stroke="#80bbe6" vector-effect="non-scaling-stroke" d="
  M 347.88 169.88
  A 91.88 91.88 0.0 0 0 256.00 78.00
  A 91.88 91.88 0.0 0 0 164.12 169.88
  A 91.88 91.88 0.0 0 0 256.00 261.76
  A 91.88 91.88 0.0 0 0 347.88 169.88"
/>
<path stroke="#80bbe6" vector-effect="non-scaling-stroke" d="
  M 110.68 393.32
  C 193.99 480.77 333.06 475.57 409.86 383.84
  C 416.28 376.18 416.35 367.25 413.53 357.33
  Q 399.95 309.44 362.48 276.99
  C 353.31 269.05 345.54 264.84 334.00 268.56
  C 329.72 269.94 326.36 272.70 322.27 275.52
  Q 309.40 284.41 291.46 289.59
  C 255.78 299.90 217.08 294.82 186.44 273.35
  C 173.32 264.15 162.89 265.61 150.92 275.75
  Q 111.38 309.24 97.81 359.70
  C 93.67 375.10 100.66 382.80 110.68 393.32"
/>
</g>
<path fill="#0077cc" d="
  M 248.39 0.00
  L 263.48 0.00
  C 333.49 2.39 399.60 32.76 445.79 84.21
  Q 508.12 153.62 512.00 248.62
  L 512.00 263.48
  C 509.56 333.63 479.09 399.80 427.52 446.02
  Q 358.17 508.16 263.39 512.00
  L 248.52 512.00
  C 178.53 509.56 112.46 479.23 66.23 427.77
  Q 3.94 358.44 0.00 263.64
  L 0.00 248.24
  Q 4.02 152.95 66.81 83.54
  C 112.93 32.56 178.73 2.45 248.39 0.00
  Z
  M 347.88 169.88
  A 91.88 91.88 0.0 0 0 256.00 78.00
  A 91.88 91.88 0.0 0 0 164.12 169.88
  A 91.88 91.88 0.0 0 0 256.00 261.76
  A 91.88 91.88 0.0 0 0 347.88 169.88
  Z
  M 110.68 393.32
  C 193.99 480.77 333.06 475.57 409.86 383.84
  C 416.28 376.18 416.35 367.25 413.53 357.33
  Q 399.95 309.44 362.48 276.99
  C 353.31 269.05 345.54 264.84 334.00 268.56
  C 329.72 269.94 326.36 272.70 322.27 275.52
  Q 309.40 284.41 291.46 289.59
  C 255.78 299.90 217.08 294.82 186.44 273.35
  C 173.32 264.15 162.89 265.61 150.92 275.75
  Q 111.38 309.24 97.81 359.70
  C 93.67 375.10 100.66 382.80 110.68 393.32
  Z"
/>
<circle fill="#ffffff" cx="256.00" cy="169.88" r="91.88"/>
<path fill="#ffffff" d="
  M 409.86 383.84
  C 333.06 475.57 193.99 480.77 110.68 393.32
  C 100.66 382.80 93.67 375.10 97.81 359.70
  Q 111.38 309.24 150.92 275.75
  C 162.89 265.61 173.32 264.15 186.44 273.35
  C 217.08 294.82 255.78 299.90 291.46 289.59
  Q 309.40 284.41 322.27 275.52
  C 326.36 272.70 329.72 269.94 334.00 268.56
  C 345.54 264.84 353.31 269.05 362.48 276.99
  Q 399.95 309.44 413.53 357.33
  C 416.35 367.25 416.28 376.18 409.86 383.84
  Z"
/>
</svg>
